<svg width="80" height="30" viewBox="0 0 80 30" fill="none" xmlns="http://www.w3.org/2000/svg">
<g clip-path="url(#clip0_1177_232739)">
<path d="M25.8274 23.7734C25.091 23.7734 24.4972 24.3625 24.4972 25.1007C24.4972 25.8468 25.091 26.428 25.8195 26.428C26.5558 26.428 27.1338 25.8468 27.1338 25.1007C27.1417 24.3625 26.5558 23.7734 25.8274 23.7734ZM25.8274 26.2238C25.2336 26.2238 24.7506 25.729 24.7506 25.1007C24.7506 24.4803 25.2336 23.9855 25.8195 23.9855H25.8274C26.4212 23.9855 26.8963 24.4881 26.8963 25.1086C26.8963 25.729 26.4212 26.2238 25.8274 26.2238ZM26.0649 25.14V25.1243C26.2233 25.0772 26.3579 24.9594 26.3579 24.763C26.3579 24.6217 26.3104 24.5196 26.2233 24.4567C26.1362 24.3939 25.9857 24.3468 25.764 24.3468C25.5899 24.3468 25.4711 24.3625 25.3444 24.386V25.8626H25.5819V25.2264H25.7482C25.9382 25.2264 26.0332 25.2971 26.0649 25.4856C26.0966 25.6819 26.1283 25.8154 26.1678 25.8626H26.4133C26.3895 25.8154 26.3579 25.729 26.3183 25.5013C26.2866 25.2814 26.1916 25.1636 26.0649 25.14ZM25.7403 25.0458H25.574V24.5431C25.6136 24.5353 25.669 24.5353 25.7482 24.5353C26.0174 24.5353 26.1124 24.6609 26.1124 24.7944C26.1045 24.9751 25.9382 25.0458 25.7403 25.0458ZM55.3523 6.91918C56.9279 6.91918 58.464 7.15479 59.8812 7.60246L61.148 3.58131C59.715 3.17291 58.0127 2.96871 56.3658 2.96871C48.6144 2.96871 43.7688 8.07368 42.3436 15.362C41.2272 21.0796 42.787 26.428 50.8788 26.428C53.0404 26.428 55.2098 26.0196 57.0467 25.407L57.308 21.4566C56.0016 21.9985 54.038 22.4069 52.6287 22.4069C47.9652 22.4069 46.4212 19.6188 47.3951 14.6081C48.2739 10.1549 51.0293 6.91918 55.3523 6.91918ZM74.2043 6.91918C75.7799 6.91918 77.3159 7.15479 78.7332 7.60246L80 3.58131C78.5748 3.17291 76.8646 2.96871 75.2177 2.96871C67.4663 2.96871 62.6287 8.07368 61.1956 15.362C60.0792 21.0796 61.6389 26.428 69.7308 26.428C71.8923 26.428 74.0617 26.0196 75.8986 25.407L76.1599 21.4566C74.8535 21.9985 72.8899 22.4069 71.4806 22.4069C66.8171 22.4069 65.2731 19.6188 66.247 14.6081C67.118 10.1549 69.8812 6.91918 74.2043 6.91918ZM32.0348 26.1217H36.4925L40.9897 3.1415H36.5321L32.0348 26.1217ZM11.2352 7.38255C12.787 4.5866 15.6294 1.89274 16.1124 1.50005C16.5083 1.17804 16.5796 0.769646 16.54 0.596863C16.4529 0.235588 15.5186 -0.180664 13.9351 -0.180664C6.38163 -0.180664 0 5.56047 0 13.1001C0 15.362 0.364212 17.0663 1.19557 18.7941C1.31433 19.0376 1.50435 19.1397 1.67854 19.1397C1.92399 19.1397 2.13777 18.9512 2.1536 18.7156C2.35154 15.2206 3.51544 10.9874 4.711 8.87477C5.32858 7.84592 5.96199 6.80922 6.70625 6.80922C6.92795 6.80922 7.51385 6.97415 7.51385 7.44538C7.51385 7.92446 6.99921 8.65487 6.46081 9.80152C5.27316 12.4718 4.77435 14.8515 4.42597 16.5715C4.05384 18.6842 3.93507 20.8989 4.10135 22.7367C4.27553 25.5484 5.51861 27.1349 6.21536 26.6087C6.71417 26.2317 5.91449 25.7683 6.15202 25.2892C6.21536 25.1636 6.39747 24.9908 6.63499 24.9986C6.77751 24.9986 7.13381 25.0458 7.30008 24.8887C7.45843 24.7316 7.42676 24.3782 7.41884 24.174C7.24465 21.3545 7.48218 19.5245 7.72763 17.8203C8.31354 13.8148 9.68329 10.1785 11.2352 7.38255ZM13.9113 17.8045C15.2652 11.0032 18.749 6.33799 22.1378 3.94258C22.6128 3.60487 22.4703 3.0551 22.0427 2.70168C21.4885 2.24616 21.8844 1.60215 22.2724 1.46078C22.5732 1.35083 22.9533 1.29585 23.072 1.19375C23.1512 1.12307 23.1908 1.00526 23.1908 0.8796C23.1908 0.61257 23.0087 0.337687 22.1774 0.337687C21.5519 0.337687 20.7522 0.596863 20.483 0.730377C14.3151 3.70697 9.58036 13.9483 9.58036 23.153C9.58036 25.2657 9.73872 27.3705 10.5384 28.6428C10.8947 29.2083 11.346 29.5931 11.7577 29.224C11.8211 29.169 12.0665 28.9177 11.7498 28.4072C11.5123 28.0302 11.5914 27.5354 11.7815 27.3077C12.2882 26.6951 12.7078 27.1663 13.2225 26.7186C13.46 26.5144 13.6025 26.1846 13.5392 25.6034C13.4679 25.0143 13.3096 23.9305 13.365 22.6111C13.4125 20.9147 13.6104 19.3125 13.9113 17.8045ZM25.8036 5.68613C25.9224 5.61544 26.0728 5.56047 26.2549 5.52905C26.5321 5.48978 26.9675 5.43481 26.9675 4.88504C26.9675 4.22532 25.6532 4.24888 24.901 4.61016C18.5669 7.70456 15.5186 17.6475 15.5344 22.7603C15.5424 24.6688 15.574 27.394 17.0071 28.5014C17.213 28.6585 17.4426 28.6742 17.6247 28.6192C17.9731 28.5014 18.0047 28.0852 17.8543 27.8731C17.7593 27.7396 17.6168 27.5354 17.5534 27.1898C17.4901 26.8443 17.5772 26.2552 18.1393 26.0746C19.0024 25.7997 19.8337 25.4149 20.6334 24.9279C24.1251 22.8231 26.8567 18.8648 27.1655 14.2075C27.3159 11.3487 26.7538 8.79623 25.4473 6.76995C25.3127 6.53434 25.3365 5.97672 25.8036 5.68613Z" fill="#00175F"/>
</g>
<defs>
<clipPath id="clip0_1177_232739">
<rect width="80" height="30" fill="white"/>
</clipPath>
</defs>
</svg>
